<svg width="225" height="30" viewBox="0 0 225 30" fill="none" xmlns="http://www.w3.org/2000/svg">
<path d="M19.499 6.245C19.8937 7.577 20.313 8.97067 20.757 10.426C21.201 11.8567 21.6573 13.2997 22.126 14.755C22.6193 16.1857 23.1003 17.604 23.569 19.01C24.0623 20.3913 24.531 21.6987 24.975 22.932C25.345 21.6 25.7027 20.157 26.048 18.603C26.3933 17.0243 26.7387 15.3963 27.084 13.719C27.4293 12.017 27.7623 10.2903 28.083 8.539C28.4283 6.78767 28.749 5.061 29.045 3.359H33.855C32.9917 7.99633 32.0297 12.461 30.969 16.753C29.9083 21.0203 28.7243 25.1027 27.417 29H22.977C21.053 24.0173 19.1907 18.5783 17.39 12.683C16.4773 15.6677 15.5523 18.5043 14.615 21.193C13.6777 23.8817 12.7403 26.484 11.803 29H7.363C6.031 25.1027 4.83467 21.0203 3.774 16.753C2.738 12.461 1.78833 7.99633 0.925 3.359H5.92C6.216 5.03633 6.52433 6.75067 6.845 8.502C7.19033 10.2533 7.53567 11.98 7.881 13.682C8.251 15.3593 8.621 16.9873 8.991 18.566C9.361 20.1447 9.731 21.6 10.101 22.932C10.5697 21.674 11.0383 20.3543 11.507 18.973C12.0003 17.567 12.4813 16.1487 12.95 14.718C13.4187 13.2627 13.8627 11.8197 14.282 10.389C14.726 8.95833 15.133 7.577 15.503 6.245H19.499ZM43.405 25.855C44.7864 25.855 45.8347 25.781 46.55 25.633V20.675C46.3034 20.601 45.9457 20.527 45.477 20.453C45.0084 20.379 44.4904 20.342 43.923 20.342C43.4297 20.342 42.924 20.379 42.406 20.453C41.9127 20.527 41.4564 20.6627 41.037 20.86C40.6424 21.0573 40.3217 21.341 40.075 21.711C39.8284 22.0563 39.705 22.5003 39.705 23.043C39.705 24.1037 40.038 24.8437 40.704 25.263C41.37 25.6577 42.2704 25.855 43.405 25.855ZM43.035 9.168C44.515 9.168 45.7607 9.353 46.772 9.723C47.7834 10.093 48.585 10.611 49.177 11.277C49.7937 11.943 50.2254 12.757 50.472 13.719C50.7434 14.6563 50.879 15.6923 50.879 16.827V28.556C50.1884 28.704 49.14 28.8767 47.734 29.074C46.3527 29.296 44.7864 29.407 43.035 29.407C41.8757 29.407 40.815 29.296 39.853 29.074C38.891 28.852 38.0647 28.4943 37.374 28.001C36.708 27.5077 36.1777 26.8663 35.783 26.077C35.413 25.2877 35.228 24.3133 35.228 23.154C35.228 22.044 35.4377 21.1067 35.857 20.342C36.301 19.5773 36.893 18.9607 37.633 18.492C38.373 17.9987 39.224 17.6533 40.186 17.456C41.1727 17.234 42.1964 17.123 43.257 17.123C43.7504 17.123 44.2684 17.16 44.811 17.234C45.3537 17.2833 45.9334 17.382 46.55 17.53V16.79C46.55 16.272 46.4884 15.7787 46.365 15.31C46.2417 14.8413 46.0197 14.4343 45.699 14.089C45.403 13.719 44.996 13.4353 44.478 13.238C43.9847 13.0407 43.3557 12.942 42.591 12.942C41.555 12.942 40.6054 13.016 39.742 13.164C38.8787 13.312 38.1757 13.4847 37.633 13.682L37.078 10.056C37.6454 9.85867 38.4717 9.66133 39.557 9.464C40.6424 9.26667 41.8017 9.168 43.035 9.168ZM67.3877 13.682C67.0177 13.5587 66.4997 13.4353 65.8337 13.312C65.1924 13.164 64.44 13.09 63.5767 13.09C63.0834 13.09 62.553 13.1393 61.9857 13.238C61.443 13.3367 61.0607 13.423 60.8387 13.497V29H56.3617V10.574C57.225 10.2533 58.298 9.95733 59.5807 9.686C60.888 9.39 62.331 9.242 63.9097 9.242C64.2057 9.242 64.551 9.26667 64.9457 9.316C65.3404 9.34067 65.735 9.39 66.1297 9.464C66.5244 9.51333 66.9067 9.58733 67.2767 9.686C67.6467 9.76 67.9427 9.834 68.1647 9.908L67.3877 13.682ZM74.7995 19.269C74.7995 21.2423 75.2682 22.7963 76.2055 23.931C77.1429 25.041 78.4379 25.596 80.0905 25.596C80.8059 25.596 81.4102 25.5713 81.9035 25.522C82.4215 25.448 82.8409 25.374 83.1615 25.3V14.2C82.7669 13.9287 82.2365 13.682 81.5705 13.46C80.9292 13.2133 80.2385 13.09 79.4985 13.09C77.8705 13.09 76.6742 13.645 75.9095 14.755C75.1695 15.865 74.7995 17.3697 74.7995 19.269ZM87.6385 28.408C86.7505 28.6793 85.6282 28.926 84.2715 29.148C82.9395 29.37 81.5335 29.481 80.0535 29.481C78.5242 29.481 77.1552 29.2467 75.9465 28.778C74.7379 28.3093 73.7019 27.6433 72.8385 26.78C71.9999 25.892 71.3462 24.8313 70.8775 23.598C70.4335 22.34 70.2115 20.934 70.2115 19.38C70.2115 17.8507 70.3965 16.4693 70.7665 15.236C71.1612 13.978 71.7285 12.905 72.4685 12.017C73.2085 11.129 74.1089 10.4507 75.1695 9.982C76.2302 9.48867 77.4512 9.242 78.8325 9.242C79.7699 9.242 80.5962 9.353 81.3115 9.575C82.0269 9.797 82.6435 10.0437 83.1615 10.315V1.028L87.6385 0.287999V28.408ZM104.352 13.682C103.982 13.5587 103.464 13.4353 102.798 13.312C102.156 13.164 101.404 13.09 100.541 13.09C100.047 13.09 99.5169 13.1393 98.9496 13.238C98.4069 13.3367 98.0246 13.423 97.8026 13.497V29H93.3256V10.574C94.1889 10.2533 95.2619 9.95733 96.5446 9.686C97.8519 9.39 99.2949 9.242 100.874 9.242C101.17 9.242 101.515 9.26667 101.91 9.316C102.304 9.34067 102.699 9.39 103.094 9.464C103.488 9.51333 103.871 9.58733 104.241 9.686C104.611 9.76 104.907 9.834 105.129 9.908L104.352 13.682ZM125.749 19.306C125.749 20.8353 125.527 22.229 125.083 23.487C124.639 24.745 124.01 25.818 123.196 26.706C122.382 27.594 121.396 28.2847 120.236 28.778C119.102 29.2713 117.844 29.518 116.462 29.518C115.081 29.518 113.823 29.2713 112.688 28.778C111.554 28.2847 110.579 27.594 109.765 26.706C108.951 25.818 108.31 24.745 107.841 23.487C107.397 22.229 107.175 20.8353 107.175 19.306C107.175 17.7767 107.397 16.3953 107.841 15.162C108.31 13.904 108.951 12.831 109.765 11.943C110.604 11.055 111.591 10.3767 112.725 9.908C113.86 9.41467 115.106 9.168 116.462 9.168C117.819 9.168 119.065 9.41467 120.199 9.908C121.359 10.3767 122.345 11.055 123.159 11.943C123.973 12.831 124.602 13.904 125.046 15.162C125.515 16.3953 125.749 17.7767 125.749 19.306ZM121.161 19.306C121.161 17.382 120.742 15.865 119.903 14.755C119.089 13.6203 117.942 13.053 116.462 13.053C114.982 13.053 113.823 13.6203 112.984 14.755C112.17 15.865 111.763 17.382 111.763 19.306C111.763 21.2547 112.17 22.7963 112.984 23.931C113.823 25.0657 114.982 25.633 116.462 25.633C117.942 25.633 119.089 25.0657 119.903 23.931C120.742 22.7963 121.161 21.2547 121.161 19.306ZM143.201 19.269C143.201 17.3697 142.818 15.865 142.054 14.755C141.314 13.645 140.13 13.09 138.502 13.09C137.762 13.09 137.059 13.201 136.393 13.423C135.751 13.645 135.233 13.8917 134.839 14.163V25.3C135.159 25.374 135.566 25.448 136.06 25.522C136.578 25.5713 137.194 25.596 137.91 25.596C139.562 25.596 140.857 25.041 141.795 23.931C142.732 22.7963 143.201 21.2423 143.201 19.269ZM147.789 19.343C147.789 20.897 147.554 22.303 147.086 23.561C146.642 24.7943 145.988 25.855 145.125 26.743C144.286 27.631 143.262 28.3093 142.054 28.778C140.845 29.2467 139.476 29.481 137.947 29.481C136.467 29.481 135.048 29.37 133.692 29.148C132.36 28.926 131.25 28.6793 130.362 28.408V1.028L134.839 0.287999V10.315C135.357 10.0437 135.986 9.797 136.726 9.575C137.49 9.353 138.329 9.242 139.242 9.242C140.598 9.242 141.807 9.48867 142.868 9.982C143.953 10.4507 144.853 11.129 145.569 12.017C146.284 12.905 146.827 13.978 147.197 15.236C147.591 16.4693 147.789 17.8383 147.789 19.343ZM151.33 19.417C151.33 17.715 151.576 16.2227 152.07 14.94C152.588 13.6573 153.266 12.5967 154.105 11.758C154.943 10.8947 155.905 10.2533 156.991 9.834C158.076 9.39 159.186 9.168 160.321 9.168C162.985 9.168 165.057 9.99433 166.537 11.647C168.041 13.2997 168.794 15.7663 168.794 19.047C168.794 19.2937 168.781 19.5773 168.757 19.898C168.757 20.194 168.744 20.4653 168.72 20.712H155.955C156.078 22.266 156.621 23.4747 157.583 24.338C158.569 25.1767 159.988 25.596 161.838 25.596C162.923 25.596 163.91 25.4973 164.798 25.3C165.71 25.1027 166.426 24.893 166.944 24.671L167.536 28.334C167.289 28.4573 166.944 28.593 166.5 28.741C166.08 28.8643 165.587 28.9753 165.02 29.074C164.477 29.1973 163.885 29.296 163.244 29.37C162.602 29.444 161.949 29.481 161.283 29.481C159.581 29.481 158.101 29.2343 156.843 28.741C155.585 28.223 154.549 27.52 153.735 26.632C152.921 25.7193 152.316 24.6587 151.922 23.45C151.527 22.2167 151.33 20.8723 151.33 19.417ZM164.317 17.419C164.317 16.8023 164.23 16.2227 164.058 15.68C163.885 15.1127 163.626 14.6317 163.281 14.237C162.96 13.8177 162.553 13.497 162.06 13.275C161.591 13.0283 161.024 12.905 160.358 12.905C159.667 12.905 159.063 13.0407 158.545 13.312C158.027 13.5587 157.583 13.8917 157.213 14.311C156.867 14.7303 156.596 15.2113 156.399 15.754C156.201 16.2967 156.066 16.8517 155.992 17.419H164.317ZM182.398 29V3.359H198.604V7.318H187.06V13.867H197.309V17.826H187.06V29H182.398ZM207.069 29H202.592V9.649H207.069V29ZM207.55 3.988C207.55 4.82667 207.279 5.49267 206.736 5.986C206.193 6.47933 205.552 6.726 204.812 6.726C204.047 6.726 203.394 6.47933 202.851 5.986C202.308 5.49267 202.037 4.82667 202.037 3.988C202.037 3.12467 202.308 2.44633 202.851 1.953C203.394 1.45967 204.047 1.213 204.812 1.213C205.552 1.213 206.193 1.45967 206.736 1.953C207.279 2.44633 207.55 3.12467 207.55 3.988ZM212.559 4.543L217.036 3.803V9.649H223.918V13.386H217.036V21.267C217.036 22.821 217.282 23.931 217.776 24.597C218.269 25.263 219.108 25.596 220.292 25.596C221.106 25.596 221.821 25.5097 222.438 25.337C223.079 25.1643 223.585 25.004 223.955 24.856L224.695 28.408C224.177 28.63 223.498 28.852 222.66 29.074C221.821 29.3207 220.834 29.444 219.7 29.444C218.318 29.444 217.159 29.259 216.222 28.889C215.309 28.519 214.581 27.9887 214.039 27.298C213.496 26.5827 213.114 25.7317 212.892 24.745C212.67 23.7337 212.559 22.5867 212.559 21.304V4.543Z" fill="black"/>
</svg>
